<?xml version="1.0" encoding="UTF-8"?>
<svg width="168px" height="92px" viewBox="0 0 168 92" version="1.1" xmlns="http://www.w3.org/2000/svg" xmlns:xlink="http://www.w3.org/1999/xlink">
    <title>Group</title>
    <g id="Page-1" stroke="none" stroke-width="1" fill="none" fill-rule="evenodd">
        <g id="Group" transform="translate(0.35, 0.42)" fill="#41A9D0">
            <path d="M68.31,71.79 C65.59,69.55 64.71,66.27 64.71,53.38 C64.71,40.49 65.59,36.98 68.31,33.78 C70.15,31.61 72.63,30.62 77.03,29.84 L87.75,27.95 C92.15,27.17 94.63,27.3 96.47,28.81 C99.19,31.05 100.07,34.34 100.07,47.14 C100.07,59.94 99.19,63.62 96.47,66.82 C94.63,68.98 92.15,69.98 87.75,70.76 L77.03,72.65 C72.63,73.43 70.15,73.3 68.31,71.79 M72.47,66.98 C73.43,67.77 74.63,67.88 77.67,67.34 L87.11,65.68 C90.15,65.14 91.35,64.61 92.31,63.48 C93.59,61.97 94.23,59.78 94.23,48.18 C94.23,36.58 93.59,34.69 92.31,33.63 C91.35,32.84 90.15,32.73 87.11,33.27 L77.67,34.93 C74.63,35.47 73.43,36 72.47,37.13 C71.19,38.64 70.55,40.83 70.55,52.35 C70.55,63.87 71.19,65.92 72.47,66.97" id="Shape" fill-rule="nonzero"></path>
            <polygon id="Path" points="119.62 45.11 113.54 46.18 113.54 61.44 119.62 60.37 119.62 65.17 102.22 68.24 102.22 63.43 108.15 62.39 108.15 28.97 102.22 30.02 102.22 25.22 119.62 22.15 119.62 26.95 113.54 28.02 113.54 41.65 119.81 40.54 131.52 24.73 126.02 25.7 126.02 21.02 142.38 18.13 142.38 22.94 137.41 23.82 123.8 41.68 137.74 57.17 142.92 56.26 142.92 61.06 125.86 64.07 125.86 59.39 131.32 58.43"></polygon>
            <path d="M147.47,60.26 L147.47,55.22 L154.67,53.95 L154.67,21.3 L147.47,22.57 L147.47,17.45 L160.43,15.16 L160.43,52.93 L167.31,51.72 L167.31,56.76 L147.46,60.26 L147.47,60.26 Z M153.79,1.21 L160.67,0 L160.67,7.68 L153.79,8.89 L153.79,1.21 Z" id="Shape" fill-rule="nonzero"></path>
            <path d="M72.49,78.43 C58.2,66.32 54.04,52.56 53.04,48.24 C56.84,45.88 66.18,38.41 69.21,20.79 L69.77,17.54 L51.8,20.86 L51.8,8.06 L0,17.62 L0,89.96 L16.05,86.99 C18.57,89.47 21.4,91.05 24.54,91.05 L24.75,91.05 L76.2,81.55 L72.5,78.41 L72.49,78.43 Z M46.46,14.45 L46.46,21.84 L18.42,27.02 L18.18,28.64 C16.18,41.91 9.26,48.88 5.3,51.86 L5.3,22.05 L46.46,14.45 L46.46,14.45 Z M5.3,83.58 L5.3,67.9 C7.02,72.62 9.34,77.94 12.23,82.3 L5.3,83.58 Z M24.33,86.46 C16.86,86.17 9.68,68.59 6.58,56.59 C10.68,53.86 19.62,46.31 22.46,30.95 L64,23.28 C60.47,39.79 48.52,46.79 48.52,46.79 C48.52,46.79 50.63,63.89 66.02,78.77 L24.34,86.46 L24.33,86.46 Z" id="Shape" fill-rule="nonzero"></path>
            <polygon id="Path" points="4.19 58.94 3.63 56.12 50.11 46.42 50.67 49.24"></polygon>
        </g>
    </g>
</svg>